<svg width="16" height="19" viewBox="0 0 16 19" fill="none" xmlns="http://www.w3.org/2000/svg">
<path d="M1.125 16.5625C1.125 17.5117 1.86328 18.25 2.8125 18.25H12.9375C13.8516 18.25 14.625 17.5117 14.625 16.5625V4.75H1.125V16.5625ZM10.6875 7.5625C10.6875 7.28125 10.9336 7 11.25 7C11.5312 7 11.8125 7.28125 11.8125 7.5625V15.4375C11.8125 15.7539 11.5312 16 11.25 16C10.9336 16 10.6875 15.7539 10.6875 15.4375V7.5625ZM7.3125 7.5625C7.3125 7.28125 7.55859 7 7.875 7C8.15625 7 8.4375 7.28125 8.4375 7.5625V15.4375C8.4375 15.7539 8.15625 16 7.875 16C7.55859 16 7.3125 15.7539 7.3125 15.4375V7.5625ZM3.9375 7.5625C3.9375 7.28125 4.18359 7 4.5 7C4.78125 7 5.0625 7.28125 5.0625 7.5625V15.4375C5.0625 15.7539 4.78125 16 4.5 16C4.18359 16 3.9375 15.7539 3.9375 15.4375V7.5625ZM15.1875 1.375H10.9688L10.6172 0.742188C10.4766 0.460938 10.1953 0.25 9.87891 0.25H5.83594C5.51953 0.25 5.23828 0.460938 5.09766 0.742188L4.78125 1.375H0.5625C0.246094 1.375 0 1.65625 0 1.9375V3.0625C0 3.37891 0.246094 3.625 0.5625 3.625H15.1875C15.4688 3.625 15.75 3.37891 15.75 3.0625V1.9375C15.75 1.65625 15.4688 1.375 15.1875 1.375Z" fill="white"/>
</svg>
